# xmcd
#
# Track frame offsets:
#	150
#	28104
#	46555
#	67241
#	90456
#	150561
#	183773
#	207459
#	231224
#	253880
#	288324
#	328491
#
# Disc length: 4429 seconds
#
# Revision: 1
# Processed by: cddbd v1.5.1PL2 Copyright (c) Steve Scherf et al.
# Submitted via: audiograbber 1.82.01
#
DISCID=ab114b0c
DTITLE=Tom Waits - Beacon Theater
DYEAR=1979
DGENRE=Blues
TTITLE0=Wrong Side of the Road
TTITLE1=The Piano Has Been Drinking (Not Me)
TTITLE2=Eggs and Sausage
TTITLE3=Saturday Night Fish Fry - Pasties and a G-String
TTITLE4=Burma Shave
TTITLE5=Whose Sportcoat is That?
TTITLE6=Romeo is Bleeding
TTITLE7=Trash Day
TTITLE8=(band intros)
TTITLE9=Potter's Field
TTITLE10=I Wish I Was In New Orleans - When The Saints Go Marching In
TTITLE11=Outro
EXTD=
EXTT0=
EXTT1=
EXTT2=
EXTT3=
EXTT4=
EXTT5=
EXTT6=
EXTT7=
EXTT8=
EXTT9=
EXTT10=
EXTT11=
PLAYORDER=
